<svg preserveAspectRatio="none" width="100%" height="100%" overflow="visible" style="display: block;" viewBox="0 0 15 9" fill="none" xmlns="http://www.w3.org/2000/svg">
<g id="Vector">
<path d="M2.10843 2.09026C3.33254 1.07561 5.09118 0 7.08258 0C9.07398 0 10.8326 1.07561 12.0567 2.09026C12.6758 2.6034 13.1755 3.11541 13.5207 3.49911C13.6936 3.69128 13.8285 3.8521 13.9209 3.96593C13.9671 4.02287 14.0028 4.06811 14.0273 4.09972C14.0396 4.11552 14.0491 4.12792 14.0558 4.13667L14.0636 4.14703L14.0659 4.15011L14.0667 4.15111C14.0667 4.15111 14.0672 4.15175 13.6711 4.44727C14.0672 4.74278 14.067 4.74306 14.067 4.74306L14.0659 4.74442L14.0636 4.7475L14.0558 4.75786C14.0491 4.76661 14.0396 4.77901 14.0273 4.79481C14.0028 4.82642 13.9671 4.87166 13.9209 4.9286C13.8285 5.04243 13.6936 5.20326 13.5207 5.39542C13.1755 5.77913 12.6758 6.29113 12.0567 6.80427C10.8326 7.81892 9.07398 8.89453 7.08258 8.89453C5.09118 8.89453 3.33254 7.81892 2.10843 6.80427C1.48937 6.29113 0.989613 5.77913 0.644434 5.39542C0.471558 5.20326 0.336702 5.04243 0.244279 4.9286C0.19805 4.87166 0.162384 4.82642 0.137832 4.79481C0.125555 4.77901 0.116052 4.76661 0.109392 4.75786L0.101541 4.7475L0.0992299 4.74442L0.0984805 4.74342C0.0984805 4.74342 0.098003 4.74278 0.494038 4.44727C0.098003 4.15175 0.0982078 4.15147 0.0982078 4.15147L0.0992299 4.15011L0.101541 4.14703L0.109392 4.13667C0.116052 4.12792 0.125555 4.11552 0.137832 4.09972C0.162384 4.06811 0.19805 4.02287 0.244279 3.96593C0.336702 3.8521 0.471558 3.69128 0.644434 3.49911C0.989613 3.11541 1.48937 2.6034 2.10843 2.09026ZM0.494038 4.44727L0.0982078 4.15147C-0.0325994 4.32677 -0.0328041 4.56748 0.098003 4.74278L0.494038 4.44727ZM1.12878 4.44727C1.19821 4.5296 1.282 4.62646 1.37916 4.73446C1.70078 5.09197 2.16589 5.56825 2.73912 6.04339C3.89959 7.0053 5.43523 7.90625 7.08258 7.90625C8.72993 7.90625 10.2656 7.0053 11.426 6.04339C11.9993 5.56825 12.4644 5.09197 12.786 4.73446C12.8832 4.62646 12.9669 4.5296 13.0364 4.44727C12.9669 4.36493 12.8832 4.26808 12.786 4.16007C12.4644 3.80256 11.9993 3.32629 11.426 2.85114C10.2656 1.88924 8.72993 0.988281 7.08258 0.988281C5.43523 0.988281 3.89959 1.88924 2.73912 2.85114C2.16589 3.32629 1.70078 3.80256 1.37916 4.16007C1.282 4.26808 1.19821 4.36493 1.12878 4.44727ZM13.6711 4.44727L14.067 4.74306C14.1978 4.56776 14.198 4.32705 14.0672 4.15175L13.6711 4.44727Z" fill="var(--fill-0, #1C1B1F)"/>
<path d="M4.9413 4.44727C4.9413 3.26468 5.89999 2.30599 7.08258 2.30599C8.26517 2.30599 9.22386 3.26468 9.22386 4.44727C9.22386 5.62985 8.26517 6.58854 7.08258 6.58854C5.89999 6.58854 4.9413 5.62985 4.9413 4.44727ZM7.08258 3.29427C6.44581 3.29427 5.92959 3.81049 5.92959 4.44727C5.92959 5.08404 6.44581 5.60026 7.08258 5.60026C7.71935 5.60026 8.23557 5.08404 8.23557 4.44727C8.23557 3.81049 7.71935 3.29427 7.08258 3.29427Z" fill="var(--fill-0, #1C1B1F)"/>
</g>
</svg>
