<svg preserveAspectRatio="none" width="100%" height="100%" overflow="visible" style="display: block;" viewBox="0 0 19 17" fill="none" xmlns="http://www.w3.org/2000/svg">
<path id="Vector (Stroke)" fill-rule="evenodd" clip-rule="evenodd" d="M5.07741 1.375C5.00101 1.375 4.93842 1.40676 4.90228 1.4462L1.41353 5.25394C1.38357 5.28665 1.37465 5.31912 1.37501 5.34619C1.37538 5.37331 1.38523 5.40615 1.41671 5.43879C1.42423 5.44659 1.43157 5.45457 1.43872 5.46272L9.39583 14.5356L17.3529 5.46272C17.3601 5.45456 17.3674 5.44658 17.375 5.43877C17.4064 5.40613 17.4163 5.37329 17.4167 5.3462C17.417 5.31915 17.4081 5.28669 17.3781 5.25398L13.8894 1.4462C13.8894 1.44618 13.8894 1.44622 13.8894 1.4462C13.8532 1.40679 13.7906 1.375 13.7142 1.375H5.07741ZM3.88856 0.51722C4.19483 0.183015 4.63009 0 5.07741 0H13.7142C14.1616 0 14.5968 0.183015 14.9031 0.51722L18.3919 4.32503C18.9316 4.91402 18.9229 5.80082 18.3775 6.37984L10.2392 15.6592C10.2392 15.6592 10.2392 15.6592 10.2392 15.6592C9.79205 16.1691 8.99962 16.1691 8.55243 15.6592C8.55243 15.6592 8.55243 15.6592 8.55243 15.6592L0.414167 6.37984C-0.131238 5.80083 -0.139935 4.91406 0.399724 4.32507C0.399726 4.32506 0.399722 4.32507 0.399724 4.32507L3.88856 0.51722Z" fill="var(--fill-0, black)"/>
</svg>
