<svg preserveAspectRatio="none" width="100%" height="100%" overflow="visible" style="display: block;" viewBox="0 0 21 20" fill="none" xmlns="http://www.w3.org/2000/svg">
<g id="Vector">
<path fill-rule="evenodd" clip-rule="evenodd" d="M2.0542 8C2.46841 8 2.8042 8.33579 2.8042 8.75V18H17.3042V8.75C17.3042 8.33579 17.64 8 18.0542 8C18.4684 8 18.8042 8.33579 18.8042 8.75V18.75C18.8042 19.1642 18.4684 19.5 18.0542 19.5H2.0542C1.63999 19.5 1.3042 19.1642 1.3042 18.75V8.75C1.3042 8.33579 1.63999 8 2.0542 8Z" fill="var(--fill-0, #1C1B1F)"/>
<path fill-rule="evenodd" clip-rule="evenodd" d="M1.75736 0.479832C1.86901 0.190678 2.14704 0 2.457 0H17.6512C17.9612 0 18.2392 0.190632 18.3509 0.479735L19.8521 4.36588C20.8093 6.84387 18.9626 9.5 16.3171 9.5C15.0907 9.5 13.9965 8.91053 13.3091 7.99806C12.625 8.91 11.5351 9.5 10.3074 9.5H9.79819C8.57052 9.5 7.48064 8.91006 6.79656 7.9982C6.10936 8.91055 5.01546 9.5 3.78899 9.5C1.14438 9.5 -0.700506 6.84494 0.255894 4.36813L1.75736 0.479832ZM7.54819 5.75C7.54819 6.99264 8.55555 8 9.79819 8H10.3074C11.55 8 12.5574 6.99264 12.5574 5.75C12.5574 5.33579 12.8932 5 13.3074 5C13.7216 5 14.0574 5.33579 14.0574 5.75C14.0574 6.98947 15.0713 8 16.3171 8C17.92 8 19.0265 6.39132 18.4529 4.90642C18.4529 4.90641 18.4529 4.90642 18.4529 4.90642L17.137 1.5H2.97137L1.65519 4.90847C1.08205 6.39276 2.18746 8 3.78899 8C5.03462 8 6.04819 6.98965 6.04819 5.75C6.04819 5.33579 6.38398 5 6.79819 5C7.2124 5 7.54819 5.33579 7.54819 5.75Z" fill="var(--fill-0, #1C1B1F)"/>
</g>
</svg>
