<svg preserveAspectRatio="none" width="100%" height="100%" overflow="visible" style="display: block;" viewBox="0 0 15 15" fill="none" xmlns="http://www.w3.org/2000/svg">
<g id="Vector">
<path d="M1.64714 2.4707C1.64714 2.1978 1.86837 1.97656 2.14128 1.97656H12.0241C12.297 1.97656 12.5182 2.1978 12.5182 2.4707V13.6712C12.5182 13.9441 12.297 14.1654 12.0241 14.1654H2.14128C1.86837 14.1654 1.64714 13.9441 1.64714 13.6712V2.4707ZM2.63542 2.96484V13.1771H11.5299V2.96484H2.63542Z" fill="var(--fill-0, #1C1B1F)"/>
<path d="M5.76497 5.27083C6.03788 5.27083 6.25911 5.49207 6.25911 5.76497V10.0475C6.25911 10.3204 6.03788 10.5417 5.76497 10.5417C5.49207 10.5417 5.27083 10.3204 5.27083 10.0475V5.76497C5.27083 5.49207 5.49207 5.27083 5.76497 5.27083Z" fill="var(--fill-0, #1C1B1F)"/>
<path d="M8.40039 5.27083C8.6733 5.27083 8.89453 5.49207 8.89453 5.76497V10.0475C8.89453 10.3204 8.6733 10.5417 8.40039 10.5417C8.12748 10.5417 7.90625 10.3204 7.90625 10.0475V5.76497C7.90625 5.49207 8.12748 5.27083 8.40039 5.27083Z" fill="var(--fill-0, #1C1B1F)"/>
<path d="M0 2.4707C0 2.1978 0.221234 1.97656 0.494141 1.97656H13.6712C13.9441 1.97656 14.1654 2.1978 14.1654 2.4707C14.1654 2.74361 13.9441 2.96484 13.6712 2.96484H0.494141C0.221234 2.96484 0 2.74361 0 2.4707Z" fill="var(--fill-0, #1C1B1F)"/>
<path d="M5.09744 0.256615C5.18419 0.0983725 5.35029 0 5.53075 0H8.65639C8.83835 0 9.0056 0.100008 9.0917 0.260311L10.1534 2.23687C10.2357 2.39001 10.2314 2.57511 10.1422 2.72431C10.053 2.8735 9.89193 2.96484 9.7181 2.96484H4.44727C4.27268 2.96484 4.11105 2.87272 4.02209 2.7225C3.93313 2.57228 3.93004 2.38627 4.01396 2.23318L5.09744 0.256615ZM5.82339 0.988281L5.28165 1.97656H8.89176L8.3609 0.988281H5.82339Z" fill="var(--fill-0, #1C1B1F)"/>
</g>
</svg>
