<svg preserveAspectRatio="none" width="100%" height="100%" overflow="visible" style="display: block;" viewBox="0 0 15 14" fill="none" xmlns="http://www.w3.org/2000/svg">
<g id="Vector">
<path d="M5.18911 0.0179678C5.41535 -0.0446596 5.65443 0.0605307 5.76111 0.26964C6.00689 0.751418 6.5069 1.07959 7.08268 1.07959C7.65846 1.07959 8.15847 0.751418 8.40426 0.26964C8.51094 0.0605307 8.75001 -0.0446596 8.97625 0.0179678C10.086 0.325177 11.0858 0.89537 11.9044 1.65657C12.0643 1.80523 12.1077 2.04117 12.0112 2.23697C11.9141 2.43376 11.8594 2.6555 11.8594 2.89143C11.8594 3.71015 12.5231 4.37385 13.3418 4.37385L13.3625 4.37371C13.5809 4.37059 13.7755 4.51129 13.841 4.71972C14.0518 5.39111 14.1654 6.10504 14.1654 6.84456C14.1654 7.33265 14.1159 7.80973 14.0216 8.27084C13.9709 8.51879 13.741 8.68834 13.4892 8.66359C13.4409 8.65885 13.3917 8.65641 13.3418 8.65641C12.5231 8.65641 11.8594 9.32011 11.8594 10.1388C11.8594 10.5032 11.9902 10.8358 12.2081 11.094C12.3713 11.2875 12.362 11.573 12.1865 11.7553C11.3505 12.624 10.2943 13.2801 9.10675 13.6337C8.84889 13.7104 8.577 13.5668 8.49508 13.3105C8.30384 12.7123 7.74309 12.2801 7.08268 12.2801C6.42227 12.2801 5.86153 12.7123 5.67029 13.3105C5.58837 13.5668 5.31647 13.7104 5.05861 13.6337C3.87106 13.2801 2.81482 12.624 1.97889 11.7553C1.80339 11.573 1.79405 11.2875 1.95727 11.094C2.17513 10.8358 2.30599 10.5032 2.30599 10.1388C2.30599 9.32011 1.64229 8.65641 0.823568 8.65641C0.773648 8.65641 0.724495 8.65885 0.676206 8.66359C0.424339 8.68834 0.194485 8.51879 0.143768 8.27084C0.0494466 7.80973 0 7.33265 0 6.84456C0 6.10505 0.113503 5.39111 0.324396 4.71972C0.389866 4.51129 0.584434 4.37059 0.80288 4.37371L0.823568 4.37385C1.64229 4.37385 2.30599 3.71015 2.30599 2.89143C2.30599 2.6555 2.25123 2.43376 2.1542 2.23697C2.05766 2.04117 2.10105 1.80523 2.26092 1.65657C3.07956 0.89537 4.07932 0.325177 5.18911 0.0179678ZM3.18409 2.16005C3.25574 2.39152 3.29427 2.63727 3.29427 2.89143C3.29427 4.1363 2.3736 5.16615 1.17601 5.33719C1.05349 5.81884 0.988281 6.32377 0.988281 6.84456C0.988281 7.12745 1.00752 7.40563 1.04472 7.67789C2.30565 7.78974 3.29427 8.84884 3.29427 10.1388C3.29427 10.5782 3.17923 10.9915 2.97783 11.3493C3.5423 11.864 4.2035 12.2737 4.93062 12.5482C5.35455 11.7984 6.15899 11.2918 7.08268 11.2918C8.00637 11.2918 8.81081 11.7984 9.23475 12.5482C9.96186 12.2737 10.6231 11.864 11.1875 11.3493C10.9861 10.9915 10.8711 10.5782 10.8711 10.1388C10.8711 8.84884 11.8597 7.78974 13.1206 7.67789C13.1578 7.40563 13.1771 7.12745 13.1771 6.84456C13.1771 6.32378 13.1119 5.81884 12.9894 5.33719C11.7918 5.16614 10.8711 4.1363 10.8711 2.89143C10.8711 2.63727 10.9096 2.39152 10.9813 2.16005C10.4177 1.69041 9.76829 1.32082 9.06043 1.0781C8.61018 1.67846 7.8922 2.06787 7.08268 2.06787C6.27317 2.06787 5.55518 1.67846 5.10493 1.0781C4.39707 1.32082 3.74771 1.69041 3.18409 2.16005Z" fill="var(--fill-0, #1C1B1F)"/>
<path d="M4.28255 6.84456C4.28255 5.29809 5.53621 4.04443 7.08268 4.04443C8.62915 4.04443 9.88281 5.29809 9.88281 6.84456C9.88281 8.39103 8.62915 9.64469 7.08268 9.64469C5.53621 9.64469 4.28255 8.39103 4.28255 6.84456ZM7.08268 5.03271C6.08202 5.03271 5.27083 5.8439 5.27083 6.84456C5.27083 7.84522 6.08202 8.65641 7.08268 8.65641C8.08334 8.65641 8.89453 7.84522 8.89453 6.84456C8.89453 5.8439 8.08334 5.03271 7.08268 5.03271Z" fill="var(--fill-0, #1C1B1F)"/>
</g>
</svg>
