<svg preserveAspectRatio="none" width="100%" height="100%" overflow="visible" style="display: block;" viewBox="0 0 20 20" fill="none" xmlns="http://www.w3.org/2000/svg">
<g id="Vector">
<path fill-rule="evenodd" clip-rule="evenodd" d="M1.75 1.5C1.61193 1.5 1.5 1.61193 1.5 1.75V6.75C1.5 6.88807 1.61193 7 1.75 7H6.75C6.88807 7 7 6.88807 7 6.75V1.75C7 1.61193 6.88807 1.5 6.75 1.5H1.75ZM0 1.75C0 0.783502 0.783502 0 1.75 0H6.75C7.7165 0 8.5 0.783502 8.5 1.75V6.75C8.5 7.7165 7.7165 8.5 6.75 8.5H1.75C0.783502 8.5 0 7.7165 0 6.75V1.75Z" fill="var(--fill-0, #1C1B1F)"/>
<path fill-rule="evenodd" clip-rule="evenodd" d="M1.75 12.5C1.61193 12.5 1.5 12.6119 1.5 12.75V17.75C1.5 17.8881 1.61193 18 1.75 18H6.75C6.88807 18 7 17.8881 7 17.75V12.75C7 12.6119 6.88807 12.5 6.75 12.5H1.75ZM0 12.75C0 11.7835 0.783502 11 1.75 11H6.75C7.7165 11 8.5 11.7835 8.5 12.75V17.75C8.5 18.7165 7.7165 19.5 6.75 19.5H1.75C0.783502 19.5 0 18.7165 0 17.75V12.75Z" fill="var(--fill-0, #1C1B1F)"/>
<path fill-rule="evenodd" clip-rule="evenodd" d="M11 4.25C11 1.90279 12.9028 0 15.25 0C17.5972 0 19.5 1.90279 19.5 4.25C19.5 6.59721 17.5972 8.5 15.25 8.5C12.9028 8.5 11 6.59721 11 4.25ZM15.25 1.5C13.7312 1.5 12.5 2.73122 12.5 4.25C12.5 5.76879 13.7312 7 15.25 7C16.7688 7 18 5.76879 18 4.25C18 2.73122 16.7688 1.5 15.25 1.5Z" fill="var(--fill-0, #1C1B1F)"/>
<path fill-rule="evenodd" clip-rule="evenodd" d="M12.75 12.5C12.6119 12.5 12.5 12.6119 12.5 12.75V17.75C12.5 17.8881 12.6119 18 12.75 18H17.75C17.8881 18 18 17.8881 18 17.75V12.75C18 12.6119 17.8881 12.5 17.75 12.5H12.75ZM11 12.75C11 11.7835 11.7835 11 12.75 11H17.75C18.7165 11 19.5 11.7835 19.5 12.75V17.75C19.5 18.7165 18.7165 19.5 17.75 19.5H12.75C11.7835 19.5 11 18.7165 11 17.75V12.75Z" fill="var(--fill-0, #1C1B1F)"/>
</g>
</svg>
