<svg preserveAspectRatio="none" width="100%" height="100%" overflow="visible" style="display: block;" viewBox="0 0 14 22" fill="none" xmlns="http://www.w3.org/2000/svg">
<g id="Vector">
<path fill-rule="evenodd" clip-rule="evenodd" d="M6.64583 0C7.02553 0 7.33333 0.307804 7.33333 0.6875V20.8542C7.33333 21.2339 7.02553 21.5417 6.64583 21.5417C6.26614 21.5417 5.95833 21.2339 5.95833 20.8542V0.6875C5.95833 0.307804 6.26614 0 6.64583 0Z" fill="var(--fill-0, #1C1B1F)"/>
<path fill-rule="evenodd" clip-rule="evenodd" d="M0 6.64583C0 3.98795 2.15461 1.83333 4.8125 1.83333H11.6873L11.6874 3.20833H4.8125C2.914 3.20833 1.375 4.74734 1.375 6.64583C1.375 8.54433 2.914 10.0833 4.8125 10.0833C5.1922 10.0833 5.5 10.3911 5.5 10.7708C5.5 11.1505 5.1922 11.4583 4.8125 11.4583C2.15461 11.4583 0 9.30372 0 6.64583ZM12.375 2.52083C12.375 2.90053 12.0671 3.20833 11.6874 3.20833L11.6873 1.83333C12.067 1.83333 12.375 2.14114 12.375 2.52083Z" fill="var(--fill-0, #1C1B1F)"/>
<path fill-rule="evenodd" clip-rule="evenodd" d="M4.125 10.7708C4.125 10.3911 4.4328 10.0833 4.8125 10.0833H8.47917C11.1371 10.0833 13.2917 12.2379 13.2917 14.8958C13.2917 17.5537 11.1371 19.7083 8.47917 19.7083H1.60438L1.60422 18.3333H8.47917C10.3777 18.3333 11.9167 16.7943 11.9167 14.8958C11.9167 12.9973 10.3777 11.4583 8.47917 11.4583H4.8125C4.4328 11.4583 4.125 11.1505 4.125 10.7708ZM0.916667 19.0208C0.916667 18.6411 1.22452 18.3333 1.60422 18.3333L1.60438 19.7083C1.22468 19.7083 0.916667 19.4005 0.916667 19.0208Z" fill="var(--fill-0, #1C1B1F)"/>
</g>
</svg>
