<svg preserveAspectRatio="none" width="100%" height="100%" overflow="visible" style="display: block;" viewBox="0 0 18 18" fill="none" xmlns="http://www.w3.org/2000/svg">
<g id="Vector">
<path fill-rule="evenodd" clip-rule="evenodd" d="M0 2.0625C0 0.923415 0.923415 0 2.0625 0H15.8125C16.9516 0 17.875 0.923422 17.875 2.0625V15.8125C17.875 16.9516 16.9516 17.875 15.8125 17.875H2.0625C0.923422 17.875 0 16.9516 0 15.8125V2.0625ZM2.0625 1.375C1.68281 1.375 1.375 1.68281 1.375 2.0625V15.8125C1.375 16.1922 1.6828 16.5 2.0625 16.5H15.8125C16.1922 16.5 16.5 16.1922 16.5 15.8125V2.0625C16.5 1.6828 16.1922 1.375 15.8125 1.375H2.0625Z" fill="var(--fill-0, black)"/>
<path fill-rule="evenodd" clip-rule="evenodd" d="M4.125 7.5625C4.125 7.1828 4.4328 6.875 4.8125 6.875H13.0625C13.4422 6.875 13.75 7.1828 13.75 7.5625C13.75 7.9422 13.4422 8.25 13.0625 8.25H4.8125C4.4328 8.25 4.125 7.9422 4.125 7.5625Z" fill="var(--fill-0, black)"/>
<path fill-rule="evenodd" clip-rule="evenodd" d="M4.125 10.3125C4.125 9.9328 4.4328 9.625 4.8125 9.625H13.0625C13.4422 9.625 13.75 9.9328 13.75 10.3125C13.75 10.6922 13.4422 11 13.0625 11H4.8125C4.4328 11 4.125 10.6922 4.125 10.3125Z" fill="var(--fill-0, black)"/>
<path fill-rule="evenodd" clip-rule="evenodd" d="M9.36803 3.86803C9.63652 3.59955 10.0718 3.59955 10.3403 3.86803L13.5486 7.07636C13.8171 7.34485 13.8171 7.78015 13.5486 8.04864C13.2802 8.31712 12.8448 8.31712 12.5764 8.04864L9.36803 4.8403C9.09955 4.57182 9.09955 4.13652 9.36803 3.86803Z" fill="var(--fill-0, black)"/>
<path fill-rule="evenodd" clip-rule="evenodd" d="M4.32636 9.82636C4.59485 9.55788 5.03015 9.55788 5.29864 9.82636L8.50697 13.0347C8.77546 13.3032 8.77546 13.7385 8.50697 14.007C8.23848 14.2755 7.80318 14.2755 7.5347 14.007L4.32636 10.7986C4.05788 10.5302 4.05788 10.0949 4.32636 9.82636Z" fill="var(--fill-0, black)"/>
</g>
</svg>
