<svg preserveAspectRatio="none" width="100%" height="100%" overflow="visible" style="display: block;" viewBox="0 0 17 16" fill="none" xmlns="http://www.w3.org/2000/svg">
<g id="Vector">
<path d="M15.2586 1L9.39729 5.37617L10.4859 2.79433L15.2586 1Z" fill="#E17726"/>
<path d="M1.74136 1L7.54938 5.41758L6.51414 2.79433L1.74136 1Z" fill="#E27625"/>
<path d="M13.1516 11.1448L11.5924 13.5493L14.9288 14.4727L15.8823 11.1978L13.1516 11.1448Z" fill="#E27625"/>
<path d="M1.12346 11.1978L2.07118 14.4727L5.4076 13.5493L3.85416 11.1448L1.12346 11.1978Z" fill="#E27625"/>
<path d="M5.22502 7.08183L4.29527 8.49758L7.60271 8.64575L7.49084 5.06233L5.22502 7.08183Z" fill="#E27625"/>
<path d="M11.775 7.08183L9.4738 5.02092L9.39729 8.64575L12.7047 8.49758L11.775 7.08183Z" fill="#E27625"/>
<path d="M5.4076 13.5493L7.40274 12.5716L5.6841 11.2218L5.4076 13.5493Z" fill="#E27625"/>
<path d="M9.59727 12.5716L11.5924 13.5493L11.3159 11.2218L9.59727 12.5716Z" fill="#E27625"/>
<path d="M11.5924 13.5493L9.59727 12.5716L9.75609 13.8806L9.7387 14.4313L11.5924 13.5493Z" fill="#D5BFB2"/>
<path d="M5.4076 13.5493L7.2613 14.4313L7.24971 13.8806L7.40274 12.5716L5.4076 13.5493Z" fill="#D5BFB2"/>
<path d="M7.29666 10.3567L5.63714 9.8655L6.80802 9.3265L7.29666 10.3567Z" fill="#233447"/>
<path d="M9.70334 10.3567L10.192 9.3265L11.3687 9.8655L9.70334 10.3567Z" fill="#233447"/>
<path d="M5.4076 13.5493L5.69568 11.1448L3.85416 11.1978L5.4076 13.5493Z" fill="#CC6228"/>
<path d="M11.3043 11.1448L11.5924 13.5493L13.1516 11.1978L11.3043 11.1448Z" fill="#CC6228"/>
<path d="M12.7047 8.49758L9.39729 8.64575L9.70334 10.3567L10.192 9.3265L11.3687 9.8655L12.7047 8.49758Z" fill="#CC6228"/>
<path d="M5.63714 9.8655L6.80802 9.3265L7.29666 10.3567L7.60271 8.64575L4.29527 8.49758L5.63714 9.8655Z" fill="#CC6228"/>
<path d="M4.29527 8.49758L5.6841 11.2218L5.63714 9.8655L4.29527 8.49758Z" fill="#E27525"/>
<path d="M11.3687 9.8655L11.3159 11.2218L12.7047 8.49758L11.3687 9.8655Z" fill="#E27525"/>
<path d="M7.60271 8.64575L7.29666 10.3567L7.68502 12.3762L7.76733 9.71733L7.60271 8.64575Z" fill="#E27525"/>
<path d="M9.39729 8.64575L9.23847 9.7115L9.31498 12.3762L9.70334 10.3567L9.39729 8.64575Z" fill="#E27525"/>
<path d="M9.70334 10.3567L9.31498 12.3762L9.59727 12.5716L11.3159 11.2218L11.3687 9.8655L9.70334 10.3567Z" fill="var(--fill-0, #F5841F)"/>
<path d="M5.63714 9.8655L5.6841 11.2218L7.40274 12.5716L7.68502 12.3762L7.29666 10.3567L5.63714 9.8655Z" fill="var(--fill-0, #F5841F)"/>
<path d="M9.7387 14.4313L9.75609 13.8806L9.60944 13.7505H7.39056L7.24971 13.8806L7.2613 14.4313L5.4076 13.5493L6.05507 14.0818L7.37317 15H9.62682L10.9449 14.0818L11.5924 13.5493L9.7387 14.4313Z" fill="#C0AC9D"/>
<path d="M9.59727 12.5716L9.31498 12.3762H7.68502L7.40274 12.5716L7.24971 13.8806L7.39056 13.7505H9.60944L9.75609 13.8806L9.59727 12.5716Z" fill="#161616"/>
<path d="M15.5056 5.66083L16 3.24467L15.2586 1L9.59727 5.22858L11.775 7.08183L14.8523 7.98833L15.5293 7.18858L15.2349 6.97567L15.7055 6.54283L15.3467 6.25875L15.8174 5.89767L15.5056 5.66083Z" fill="#763E1A"/>
<path d="M1 3.24467L1.50023 5.66083L1.18259 5.89767L1.65326 6.25875L1.29446 6.54283L1.76513 6.97567L1.47067 7.18858L2.14769 7.98833L5.22502 7.08183L7.40273 5.22858L1.74136 1L1 3.24467Z" fill="#763E1A"/>
<path d="M14.8523 7.98833L11.775 7.08183L12.7047 8.49758L11.3159 11.2218L13.1516 11.1978H15.8823L14.8523 7.98833Z" fill="var(--fill-0, #F5841F)"/>
<path d="M5.22502 7.08183L2.14769 7.98833L1.12346 11.1978H3.85416L5.6841 11.2218L4.29527 8.49758L5.22502 7.08183Z" fill="var(--fill-0, #F5841F)"/>
<path d="M9.39729 8.64575L9.59727 5.22858L10.4859 2.79433H6.51414L7.40273 5.22858L7.60271 8.64575L7.67922 9.72317L7.68502 12.3762H9.31498L9.32077 9.72317L9.39729 8.64575Z" fill="var(--fill-0, #F5841F)"/>
<path d="M15.2586 1L9.39729 5.37617L10.4859 2.79433M15.2586 1L10.4859 2.79433M15.2586 1L16 3.24467L15.5056 5.66083L15.8174 5.89767L15.3467 6.25875L15.7055 6.54283L15.2349 6.97567L15.5293 7.18858L14.8523 7.98833M15.2586 1L9.59727 5.22858M10.4859 2.79433L9.59727 5.22858M10.4859 2.79433H6.51414M1.74136 1L7.54938 5.41758L6.51414 2.79433M1.74136 1L6.51414 2.79433M1.74136 1L7.40273 5.22858M1.74136 1L1 3.24467L1.50023 5.66083L1.18259 5.89767L1.65326 6.25875L1.29446 6.54283L1.76513 6.97567L1.47067 7.18858L2.14769 7.98833M6.51414 2.79433L7.40273 5.22858M11.5924 13.5493L13.1516 11.1448L15.8823 11.1978M11.5924 13.5493L14.9288 14.4727L15.8823 11.1978M11.5924 13.5493L9.59727 12.5716M11.5924 13.5493L11.3159 11.2218M11.5924 13.5493L9.7387 14.4313L9.75609 13.8806M11.5924 13.5493L11.3043 11.1448L13.1516 11.1978M11.5924 13.5493L13.1516 11.1978M11.5924 13.5493L10.9449 14.0818L9.62682 15H7.37317L6.05507 14.0818L5.4076 13.5493M15.8823 11.1978H13.1516M15.8823 11.1978L14.8523 7.98833M1.12346 11.1978L2.07118 14.4727L5.4076 13.5493M1.12346 11.1978L3.85416 11.1448L5.4076 13.5493M1.12346 11.1978L2.14769 7.98833M1.12346 11.1978H3.85416M5.4076 13.5493L7.40274 12.5716M5.4076 13.5493L5.6841 11.2218M5.4076 13.5493L7.2613 14.4313L7.24971 13.8806M5.4076 13.5493L5.69568 11.1448L3.85416 11.1978M5.4076 13.5493L3.85416 11.1978M5.22502 7.08183L4.29527 8.49758M5.22502 7.08183L7.49084 5.06233L7.60271 8.64575M5.22502 7.08183L2.14769 7.98833M5.22502 7.08183L7.40273 5.22858M4.29527 8.49758L7.60271 8.64575M4.29527 8.49758L5.63714 9.8655M4.29527 8.49758L5.6841 11.2218M7.60271 8.64575L7.29666 10.3567M7.60271 8.64575L7.76733 9.71733L7.68502 12.3762M7.60271 8.64575L7.40273 5.22858M7.60271 8.64575L7.67922 9.72317L7.68502 12.3762M11.775 7.08183L9.4738 5.02092L9.39729 8.64575M11.775 7.08183L12.7047 8.49758M11.775 7.08183L9.59727 5.22858M11.775 7.08183L14.8523 7.98833M9.39729 8.64575L12.7047 8.49758M9.39729 8.64575L9.70334 10.3567M9.39729 8.64575L9.23847 9.7115L9.31498 12.3762M9.39729 8.64575L9.59727 5.22858M9.39729 8.64575L9.32077 9.72317L9.31498 12.3762M12.7047 8.49758L11.3687 9.8655M12.7047 8.49758L11.3159 11.2218M7.40274 12.5716L5.6841 11.2218M7.40274 12.5716L7.24971 13.8806M7.40274 12.5716L7.68502 12.3762M5.6841 11.2218L5.63714 9.8655M5.6841 11.2218L3.85416 11.1978M9.59727 12.5716L11.3159 11.2218M9.59727 12.5716L9.75609 13.8806M9.59727 12.5716L9.31498 12.3762M11.3159 11.2218L11.3687 9.8655M11.3159 11.2218L13.1516 11.1978M9.75609 13.8806L9.60944 13.7505H7.39056L7.24971 13.8806M7.29666 10.3567L5.63714 9.8655M7.29666 10.3567L6.80802 9.3265L5.63714 9.8655M7.29666 10.3567L7.68502 12.3762M9.70334 10.3567L10.192 9.3265L11.3687 9.8655M9.70334 10.3567L11.3687 9.8655M9.70334 10.3567L9.31498 12.3762M7.68502 12.3762H9.31498" stroke="var(--stroke-0, #F5841F)" stroke-width="0.0833333" stroke-linecap="round" stroke-linejoin="round"/>
</g>
</svg>
